<?xml version="1.0" encoding="utf-8"?>
<!-- Generator: Adobe Illustrator 28.0.0, SVG Export Plug-In . SVG Version: 6.00 Build 0)  -->
<svg version="1.1" id="Layer_1" xmlns="http://www.w3.org/2000/svg" xmlns:xlink="http://www.w3.org/1999/xlink" x="0px" y="0px"
	 viewBox="0 0 126 89" style="enable-background:new 0 0 126 89;" xml:space="preserve">
<style type="text/css">
	.st0{fill-rule:evenodd;clip-rule:evenodd;fill:#FA2A83;}
	.st1{fill:#FA2A83;}
	.st2{font-family:'SVN-Crosver-Regular';}
	.st3{font-size:20.0578px;}
	.st4{fill:#FFFFFF;}
	.st5{font-size:19.1842px;}
</style>
<g>
	<path class="st0" d="M125.8,43.6c-0.1,0.4-0.2,0.8-0.3,1.2h-11c-0.1,1.9,0.8,2.8,2.8,2.8c1,0,2-0.5,3-1.4h4.5
		c-1,1.5-2.2,2.7-3.6,3.7c-1.5,1-3.1,1.4-4.6,1.4c-2.1,0-3.8-0.8-5-2.3s-1.6-3.4-1.1-5.5c0.5-2.2,1.6-4,3.4-5.6s3.8-2.4,5.9-2.4
		c2.2,0,3.9,0.8,5,2.4C125.9,39.4,126.3,41.3,125.8,43.6L125.8,43.6z M119,39.3c-1.9,0-3.1,0.8-3.9,2.5h6.6
		C121.8,40.1,120.9,39.3,119,39.3z M108.8,26.5c-0.4-0.7-0.7-1.4-1.1-2.1c-0.1-0.2-0.3-0.4-0.4-0.7c-0.3-0.5-0.5-0.9-0.8-1.4
		c-0.2-0.3-0.4-0.5-0.6-0.8c-0.3-0.4-0.5-0.8-0.8-1.1c-0.2-0.3-0.4-0.6-0.6-0.8c-0.3-0.3-0.5-0.7-0.8-1c-0.2-0.3-0.5-0.5-0.7-0.8
		c-0.3-0.3-0.6-0.7-0.9-1c-0.2-0.3-0.5-0.5-0.8-0.8c-0.3-0.3-0.6-0.6-0.9-0.9c-0.3-0.3-0.5-0.5-0.8-0.7c-0.3-0.3-0.6-0.6-1-0.8
		c-0.3-0.2-0.6-0.5-0.9-0.7c-0.3-0.3-0.7-0.5-1-0.8c-0.3-0.2-0.6-0.4-0.9-0.7c-0.3-0.2-0.7-0.5-1.1-0.7c-0.3-0.2-0.6-0.4-0.9-0.6
		c-0.4-0.2-0.7-0.5-1.1-0.7c-0.3-0.2-0.6-0.4-1-0.5c-0.4-0.2-0.8-0.4-1.2-0.6c-0.3-0.2-0.7-0.3-1-0.5c-0.4-0.2-0.8-0.4-1.2-0.5
		c-0.3-0.1-0.7-0.3-1-0.4c-0.4-0.2-0.9-0.3-1.3-0.5c-0.3-0.1-0.7-0.2-1-0.3c-0.5-0.2-0.9-0.3-1.4-0.4c-0.3-0.1-0.6-0.2-1-0.3
		C82.1,5.3,81.5,5.1,81,5c-0.3-0.1-0.5-0.1-0.8-0.2c-0.8-0.2-1.7-0.3-2.5-0.4l0,0c-1-0.1-2-0.2-3-0.3c-0.1,0-0.1,0-0.2,0
		c-1,0-1.9-0.1-2.8,0c-0.1,0-0.2,0-0.3,0c-0.9,0-1.8,0.1-2.7,0.2c-0.1,0-0.2,0-0.4,0c-0.9,0.1-1.8,0.2-2.6,0.4c-0.1,0-0.3,0-0.4,0.1
		c-0.9,0.2-1.7,0.3-2.6,0.6c-0.1,0-0.3,0.1-0.4,0.1c-0.8,0.2-1.7,0.5-2.5,0.7c-0.1,0-0.2,0.1-0.3,0.1c-0.8,0.3-1.7,0.6-2.5,0.9
		c-0.1,0-0.2,0.1-0.3,0.1c-0.8,0.3-1.6,0.7-2.4,1.1c-0.1,0-0.1,0.1-0.2,0.1c-0.8,0.4-1.6,0.9-2.4,1.3l-0.1,0.1
		c-1.6,1-3.2,2.1-4.7,3.3l0,0c-0.7,0.6-1.4,1.2-2.1,1.9l-0.1,0.1c-0.7,0.6-1.3,1.3-1.9,2l-0.2,0.2c-0.6,0.7-1.2,1.4-1.8,2.1
		l-0.2,0.2c-0.6,0.7-1.1,1.4-1.6,2.2l0,0c-0.5,0.7-1,1.5-1.4,2.3c-0.4,0.7-0.8,1.5-1.2,2.3h-4.3c0.3-0.7,0.7-1.5,1-2.2l0,0
		c0.1-0.2,0.2-0.4,0.3-0.5c0.1-0.3,0.3-0.5,0.4-0.8c0.1-0.3,0.3-0.5,0.4-0.8c0.1-0.2,0.3-0.5,0.4-0.7c0.2-0.3,0.3-0.5,0.5-0.8
		c0.2-0.2,0.3-0.5,0.5-0.7s0.3-0.5,0.5-0.7s0.3-0.5,0.5-0.7s0.4-0.5,0.5-0.7c0.2-0.2,0.3-0.4,0.5-0.7c0.2-0.2,0.4-0.5,0.6-0.7
		c0.2-0.2,0.3-0.4,0.5-0.6c0.2-0.2,0.4-0.5,0.6-0.7c0.2-0.2,0.3-0.4,0.5-0.6c0.2-0.3,0.5-0.5,0.8-0.8c0.2-0.2,0.4-0.5,0.7-0.7
		c0.3-0.3,0.6-0.6,0.9-0.9c0.2-0.2,0.4-0.3,0.5-0.5c0.2-0.2,0.5-0.4,0.7-0.7c0.2-0.2,0.4-0.3,0.6-0.5c0.2-0.2,0.5-0.4,0.7-0.6
		c0.2-0.2,0.4-0.3,0.6-0.5C45.5,9.2,45.8,9,46,8.8s0.4-0.3,0.7-0.5C47,8.2,47.2,8,47.5,7.8c0.2-0.2,0.5-0.3,0.7-0.5S48.7,7,49,6.8
		c0.2-0.1,0.5-0.3,0.7-0.4c0.3-0.2,0.5-0.3,0.8-0.5c0.2-0.1,0.5-0.3,0.7-0.4c0.3-0.1,0.5-0.3,0.8-0.4c0.2-0.1,0.5-0.3,0.7-0.4
		c0.3-0.1,0.5-0.3,0.8-0.4c0.2-0.1,0.5-0.2,0.7-0.4c0.3-0.1,0.5-0.2,0.8-0.4c0.3-0.1,0.5-0.2,0.8-0.3c0.2,0,0.5-0.1,0.8-0.2
		s0.5-0.2,0.8-0.3s0.6-0.2,0.9-0.3c0.3-0.1,0.5-0.2,0.8-0.3s0.6-0.2,0.9-0.3c0.3-0.1,0.5-0.2,0.8-0.2c0.3-0.1,0.6-0.2,0.9-0.2
		c0.3-0.1,0.5-0.1,0.8-0.2s0.6-0.1,0.9-0.2c0.3-0.1,0.5-0.1,0.8-0.2s0.6-0.1,0.9-0.2c0.3,0,0.5-0.1,0.8-0.1s0.6-0.1,0.9-0.1
		s0.5-0.1,0.8-0.1s0.6-0.1,1-0.1c0.3,0,0.5-0.1,0.8-0.1s0.7,0,1-0.1c0.3,0,0.5,0,0.8,0s0.7,0,1,0s0.5,0,0.8,0c0.4,0,0.7,0,1.1,0
		c0.2,0,0.5,0,0.7,0c0.4,0,0.8,0.1,1.2,0.1c0.2,0,0.4,0,0.6,0c0.6,0.1,1.2,0.1,1.8,0.2l0,0l0,0c1,0.1,1.9,0.3,2.9,0.5
		c0.3,0.1,0.6,0.1,0.9,0.2c0.6,0.1,1.2,0.3,1.8,0.4c0.4,0.1,0.7,0.2,1.1,0.3c0.5,0.2,1.1,0.3,1.6,0.5c0.4,0.1,0.8,0.3,1.1,0.4
		c0.5,0.2,1,0.4,1.5,0.6c0.4,0.2,0.8,0.3,1.1,0.5c0.5,0.2,0.9,0.4,1.4,0.6C92.3,4.6,92.6,4.8,93,5s0.9,0.5,1.3,0.7s0.7,0.4,1.1,0.7
		c0.4,0.3,0.8,0.5,1.2,0.8c0.4,0.2,0.7,0.5,1.1,0.7c0.4,0.3,0.8,0.6,1.2,0.8c0.4,0.3,0.7,0.5,1,0.8c0.4,0.3,0.7,0.6,1.1,0.9
		c0.3,0.3,0.7,0.6,1,0.9c0.3,0.3,0.7,0.6,1,1c0.3,0.3,0.6,0.6,0.9,0.9c0.3,0.3,0.6,0.7,1,1c0.3,0.3,0.6,0.7,0.9,1
		c0.3,0.4,0.6,0.7,0.9,1.1c0.3,0.3,0.6,0.7,0.8,1c0.3,0.4,0.6,0.7,0.8,1.1c0.3,0.4,0.5,0.7,0.8,1.1s0.5,0.8,0.8,1.2
		c0.2,0.4,0.5,0.7,0.7,1.1s0.5,0.8,0.7,1.2c0.2,0.4,0.4,0.8,0.6,1.2c0,0.1,0.1,0.1,0.1,0.2l0,0c0.3,0.7,0.7,1.4,1,2.1L108.8,26.5
		L108.8,26.5z M31.8,50.8h-4.3l-4.9-11.9h-0.1l-2.4,11.9h-4.8l1.7-8.3H0l17.6-2.1l0.4-2.1H5.2l13.3-1.9l0.4-2.1h-8.8l9.1-1.6
		l0.3-1.5h4.3l4.9,12.3l0.1-0.1l2.4-12.3H36C36,31.1,31.8,50.8,31.8,50.8z M40.2,51.1c-2,0-3.6-0.7-4.8-2.2s-1.5-3.2-1.1-5.3
		s1.6-3.9,3.3-5.4c1.8-1.5,3.7-2.3,5.8-2.3s3.7,0.8,4.8,2.3c1.2,1.5,1.5,3.3,1.1,5.4c-0.4,2.1-1.6,3.9-3.4,5.4
		C44.2,50.4,42.3,51.1,40.2,51.1z M46.8,39.3c-0.9-1.2-2.1-1.7-3.7-1.7c-1.6,0-3.1,0.6-4.5,1.8c-1.3,1.2-2.2,2.6-2.5,4.2
		c-0.3,1.6-0.1,3,0.8,4.1c0.9,1.2,2.1,1.7,3.7,1.7c1.6,0,3.1-0.6,4.5-1.8c1.3-1.2,2.1-2.6,2.5-4.2C47.9,41.8,47.6,40.5,46.8,39.3z
		 M42.4,45.6c0,0.4-0.3,0.7-0.7,0.7S41,46,41,45.6l-3.2-2.4c-0.2-0.2-0.3-0.5-0.1-0.7s0.5-0.3,0.7-0.1l3.2,2.4h0.1l0,0l3.8-4
		c0.2-0.2,0.5-0.2,0.7,0s0.2,0.5,0,0.7L42.4,45.6C42.4,45.5,42.4,45.6,42.4,45.6z M102.7,35.5c2.2,0,3.9,0.8,5,2.4
		c1.1,1.5,1.5,3.4,1,5.7c-0.1,0.4-0.2,0.8-0.3,1.2h-11c-0.1,1.9,0.8,2.8,2.8,2.8c1,0,2-0.5,3-1.4h4.5c-1,1.5-2.2,2.7-3.6,3.7
		c-1.5,1-3.1,1.4-4.6,1.4c-2.1,0-3.8-0.8-5-2.3s-1.6-3.4-1.1-5.5c0.5-2.2,1.6-4,3.4-5.6C98.6,36.3,100.6,35.5,102.7,35.5z
		 M104.8,41.8c0-1.7-0.9-2.5-2.8-2.5s-3.1,0.8-3.9,2.5H104.8z M93.1,40c-1.1,0-2,0.2-2.5,0.5c-0.8,0.4-1.2,1.1-1.5,2.2l-1.7,8.1H83
		L86.2,36h4.1L90,37.6l0,0c1-1.4,2.4-2.1,4.1-2.1L93.1,40z M60.6,50.8l-0.4-9.5h-0.1l-4.5,9.5h-4.1L50.2,36h4.5l0.3,9.1h0.1l4.3-9.1
		h3.7l0.5,9.1h0.1l4.1-9.1h4.5l-7.6,14.7C64.7,50.8,60.6,50.8,60.6,50.8z M83.1,43.3h-5.7l-1.6,7.5H71l4.1-19.6h10.6L85,35.5h-5.9
		l-0.7,3.3h5.7C84.1,38.9,83.1,43.3,83.1,43.3z M90.8,26c0,0.2-0.2,0.4-0.4,0.4H54.6c-0.2,0-0.4-0.2-0.4-0.4s0.2-0.4,0.4-0.4h10.7
		c-0.5-0.4-0.7-1.1-0.7-1.8c0-1.3,1.1-2.4,2.4-2.4s2.4,1.1,2.4,2.4c0,0.7-0.3,1.3-0.7,1.8H78c-0.5-0.4-0.7-1.1-0.7-1.8
		c0-1.3,1.1-2.4,2.4-2.4s2.4,1.1,2.4,2.4c0,0.7-0.3,1.3-0.7,1.8h9C90.6,25.6,90.8,25.8,90.8,26L90.8,26z M67,22.6
		c-0.7,0-1.2,0.5-1.2,1.2S66.3,25,67,25s1.2-0.5,1.2-1.2C68.2,23.2,67.7,22.6,67,22.6z M79.7,22.6c-0.7,0-1.2,0.5-1.2,1.2
		S79,25,79.7,25s1.2-0.5,1.2-1.2C80.9,23.2,80.4,22.6,79.7,22.6z M85.3,22.2c0,0.6-0.5,1.2-1.2,1.2h-1.2c-0.2-1.6-1.6-2.8-3.2-2.8
		s-2.9,1.2-3.2,2.8h-6.3c-0.2-1.6-1.6-2.8-3.2-2.8s-2.9,1.2-3.2,2.8h-1.6c-0.6,0-1.2-0.5-1.2-1.2v-2.6h24.2
		C85.3,19.6,85.3,22.2,85.3,22.2z M62.3,9.9h13.4c0.6,0,1.2,0.5,1.2,1.2V12h2.3c0.4,0,0.8,0.2,1.1,0.5l4.6,4.6
		c0.3,0.3,0.5,0.7,0.5,1.1v0.9H61.1v-2.3l-4.8-0.9l8.5-0.7L56.3,14l8.5-0.8l-8.4-1.1l4.7-0.5v-0.2C61.1,10.4,61.6,9.9,62.3,9.9z
		 M78.2,16.9c0,0.1,0.1,0.2,0.2,0.2h4.4c0.2,0,0.2-0.2,0.1-0.3l-3.6-3.4l-0.1-0.1h-0.8c-0.1,0-0.2,0.1-0.2,0.2V16.9z M33.6,55.3
		h77.7v0.2l0.1-0.2h4c-1.2,4.8-3.1,9.2-5.6,13.1c-0.3,0.4-0.5,0.8-0.8,1.2c-9.1,13.4-25.1,21.3-42.2,19c-13-1.7-23.9-8.9-30.7-18.9
		c-0.3-0.4-0.5-0.8-0.8-1.2c-2.5-4-4.5-8.4-5.6-13.1C29.6,55.3,33.6,55.3,33.6,55.3z M93.6,71.5l2.2-1.2l2.2,1.2L97.6,69l1.8-1.7
		L97,66.9l-1.1-2.2l-1.1,2.2l-2.4,0.4l1.8,1.7L93.6,71.5L93.6,71.5z M75.8,79.6l1.7-8.2h6.6l-1.7,8.2h5.2l4.3-20.4h-5.2l-1.6,7.7
		h-6.6l1.6-7.7h-5.2l-4.3,20.4C70.6,79.6,75.8,79.6,75.8,79.6z M67.5,79.6l0.9-4.4h-6.9c0.6-0.4,1-0.7,1.4-1c0.5-0.4,1-0.8,1.4-1.1
		c1-0.9,1.9-1.7,2.7-2.4c0.9-0.9,1.6-1.9,2.2-2.8c0.6-1,1.1-2.1,1.3-3.1c0.2-0.8,0.2-1.6,0-2.3c-0.3-1.2-1-2.1-2.1-2.7
		c-1-0.6-2.2-0.9-3.6-0.9c-1.3,0-2.5,0.3-3.7,0.8c-1.3,0.5-2.3,1.3-3.2,2.4c-0.6,0.7-1.1,1.4-1.4,2.2c-0.3,0.6-0.6,1.4-0.8,2.4h4.9
		c0.2-0.9,0.6-1.7,1-2.2c0.5-0.7,1.2-1,2-1c1.3,0,1.8,0.7,1.5,2c-0.2,0.8-0.7,1.7-1.6,2.8c-0.3,0.4-0.7,0.9-1.2,1.3
		c-0.4,0.4-0.8,0.7-1.2,1.1c-1,0.9-2.2,1.8-3.5,2.7c-0.6,0.4-1.2,0.8-1.8,1.2c-0.5,0.3-1.2,0.7-1.9,1.1L53,79.8L67.5,79.6L67.5,79.6
		z M46.5,71.5l2.2-1.2l2.2,1.2L50.5,69l1.8-1.7l-2.5-0.4l-1.1-2.2l-1.1,2.2l-2.5,0.4l1.8,1.7L46.5,71.5z"/>
	<path class="st0" d="M71.9,58.3l22.6-1.5l-2.7,9.1L89.5,80L73,85l-22.6-4.8c0,0,2.7-9.7,2.7-10.6s1.7-6.8,1.7-8.1s5.4-5,5.4-5
		L71.9,58.3z"/>
	<text transform="matrix(1 0 0 1 60.7902 80.4298)" class="st1 st2 st3">4H</text>
	<text transform="matrix(1 0 0 1 61.93 78.9805)" class="st4 st2 st5">4H</text>
</g>
</svg>
