<?xml version="1.0" encoding="utf-8"?>
<!-- Generator: Adobe Illustrator 28.0.0, SVG Export Plug-In . SVG Version: 6.00 Build 0)  -->
<svg version="1.1" id="Layer_1" xmlns="http://www.w3.org/2000/svg" xmlns:xlink="http://www.w3.org/1999/xlink" x="0px" y="0px"
	 viewBox="0 0 54 54" style="enable-background:new 0 0 54 54;" xml:space="preserve">
<style type="text/css">
	.st0{fill-rule:evenodd;clip-rule:evenodd;fill:#FA2A83;}
</style>
<path class="st0" d="M27,54C12.1,54,0,41.9,0,27S12.1,0,27,0s27,12.1,27,27S41.9,54,27,54z M27,3C13.8,3,3,13.8,3,27s10.8,24,24,24
	s24-10.8,24-24S40.2,3,27,3z M27,50C14.3,50,4,39.7,4,27S14.3,4,27,4s23,10.3,23,23S39.7,50,27,50z M27,4.4
	C14.5,4.4,4.4,14.5,4.4,27S14.5,49.6,27,49.6S49.6,39.5,49.6,27S39.5,4.4,27,4.4z M46.8,21.1c-0.2-0.1-0.3-0.2-0.4-0.4
	c-0.1-0.2-0.1-0.3,0-0.6c0-0.2,0-0.4,0-0.5s-0.1-0.1-0.2-0.2c-0.1,0-0.2,0-0.3,0v-0.6c0.2-0.1,0.4-0.1,0.6,0
	c0.2,0.1,0.3,0.2,0.4,0.4c0,0.1,0.1,0.3,0,0.6c0,0.2,0,0.4,0,0.5s0.1,0.1,0.2,0.2c0.1,0,0.2,0,0.3,0v0.6
	C47.2,21.1,47,21.1,46.8,21.1z M41.7,24.1l-0.4-1l0.9-0.7l-0.6-1.6h-1.1l-0.4-1l5.3-0.1l0.4,1C45.9,20.8,41.7,24.1,41.7,24.1z
	 M44.4,20.8l-1.9,0.1l0.4,1.1L44.4,20.8L44.4,20.8z M39.4,18.9l1.7-1.3l-1.2-1.7l-1.7,1.3l-0.6-0.8l4-3.1l0.6,0.8l-1.7,1.3l1.2,1.7
	l1.7-1.3l0.6,0.8l-4,3.1L39.4,18.9z M35,14.4l1-1.9l-1.8-1l-1,1.9l-0.9-0.5l2.4-4.5l0.9,0.5l-1,1.9l1.8,1l1-1.9l0.9,0.5l-2.4,4.5
	L35,14.4z M30.7,12.5l-1.4-3.8l0,0l-0.6,3.4l-1-0.2l0.9-5l1,0.2l1.4,3.8l0,0l0.6-3.4l1,0.2l-0.9,5C31.7,12.7,30.7,12.5,30.7,12.5z
	 M25.6,6.5l0.7-1h1.1l0,0l-0.9,1C26.5,6.5,25.6,6.5,25.6,6.5z M23.6,10.3l-2,0.5l0.6,2l-1,0.3l-1.3-4.9l1-0.3l0.6,2.1l2-0.5
	l-0.6-2.1l1-0.3l1.3,4.9l-1,0.3L23.6,10.3z M19.9,11.9L19.9,11.9c0.3,0.5,0.4,0.9,0.3,1.4c-0.1,0.4-0.4,0.8-0.9,1.1s-1,0.4-1.6,0.3
	c-0.5-0.1-1-0.5-1.3-1l-0.5-0.9c-0.3-0.5-0.4-1.1-0.3-1.6c0.1-0.5,0.4-1,0.9-1.3c0.5-0.3,1-0.5,1.5-0.4s0.8,0.3,1.1,0.8l0,0l-1,0.7
	c-0.2-0.3-0.4-0.4-0.6-0.5s-0.5,0-0.7,0.2c-0.3,0.2-0.4,0.4-0.4,0.7s0.1,0.6,0.3,0.9l0.5,0.9c0.2,0.3,0.5,0.6,0.7,0.7
	c0.3,0.1,0.6,0.1,0.8-0.1c0.3-0.2,0.4-0.4,0.4-0.6c0-0.2,0-0.5-0.2-0.7C19.1,12.4,19.9,11.9,19.9,11.9z M15.4,17.4
	c-0.1,0.3-0.2,0.7-0.5,1.1c-0.4,0.5-0.8,0.8-1.3,0.9s-1.1,0-1.6-0.4l-0.9-0.6c-0.5-0.4-0.8-0.8-0.9-1.3c-0.1-0.5,0-1.1,0.4-1.5
	c0.4-0.5,0.8-0.8,1.2-0.9c0.4-0.1,0.8,0,1.2,0.3l0,0l-0.6,0.8c-0.2-0.2-0.4-0.2-0.6-0.2c-0.2,0-0.4,0.2-0.6,0.4
	c-0.2,0.3-0.2,0.5-0.1,0.8c0.1,0.3,0.3,0.6,0.6,0.8l0.9,0.6c0.3,0.2,0.6,0.3,0.9,0.3c0.3,0,0.6-0.2,0.7-0.4c0.1-0.2,0.2-0.4,0.3-0.5
	c0-0.1,0.1-0.3,0-0.4l-0.8-0.6l-0.6,0.8L12.7,17l1.2-1.6l1.6,1.1C15.5,16.7,15.5,17,15.4,17.4z M13.2,21.6l-3.9,1l0,0l3.3,1l-0.3,1
	l-4.8-1.5l0.3-1l3.9-1l0,0l-3.3-1l0.3-1l4.8,1.5C13.5,20.6,13.2,21.6,13.2,21.6z M12.2,25.9l-1.1,0.3v1.7l1.1,0.3v1.1l-5.1-1.7v-1.1
	l5.1-1.7C12.2,24.8,12.2,25.9,12.2,25.9z M10.3,26.4L8.5,27l0,0l1.8,0.6V26.4z M5.7,28.4v-1.1l0.9-0.7v0.9L5.7,28.4L5.7,28.4z
	 M12.6,30.4l-2,0.6l0.6,2l2-0.6l0.3,1l-4.8,1.5l-0.3-1l2.1-0.6l-0.6-2l-2.1,0.6l-0.3-1l4.8-1.5C12.3,29.5,12.6,30.4,12.6,30.4z
	 M13.7,39l0.6-1l0.6,1l1.1,0.2l-0.8,0.9l0.1,1.1l-1-0.5l-1,0.5l0.1-1.1l-0.8-0.9L13.7,39z M26.7,7l0.2,5.1h-1L25.6,7H26.7z M27,15.1
	c6.5,0,11.8,5.4,11.8,11.9c0,6.6-5.3,11.9-11.8,11.9c-1.9,0-3.6-0.5-5.2-1.2l1-0.6c0,0,1.9-1.1,3.2-1.2c1.3-0.1,3.8,0.3,5.3-0.5
	s3.4-1.9,3.3-2.7c-0.1-0.9-0.7-0.8-0.7-0.8s0-0.1,0.2-0.3c0.2-0.2,0.7-0.6,0.5-1.3c-0.2-0.7-0.7-0.8-0.7-0.8
	c0.3-0.6,0.7-0.6,0.4-1.7c-0.2-0.8-1-0.7-1-0.7s0.8-0.6,0.6-1.6c-0.3-1-1.1-1.1-2.1-1.1c-1,0.1-4,0.8-4.1,0.5s0.1-0.5,0.4-1.1
	c0.2-0.7,1.1-2.3,0.9-3.5c-0.3-1.2-0.7-2.2-1.3-2.2c-0.6,0-1,0.5-1.1,0.7c0,0.2-0.1,0.4,0.1,1.1s-0.2,1.2-0.8,2.4
	c-0.9,1-1.4,0.7-2.1,1.7C23,25,23,25.5,23,26.9s-0.6,1.8-1.9,3c-0.9,0.9-3.4,1.9-4.6,2.4c-0.8-1.6-1.2-3.4-1.2-5.3
	C15.2,20.4,20.5,15.1,27,15.1z M21.5,37.5c0.1,0.1,0.2,0.1,0.3,0.2l0,0C21.7,37.6,21.6,37.6,21.5,37.5z M16.6,32.6
	c-0.1-0.1-0.1-0.2-0.2-0.3l0,0C16.5,32.4,16.5,32.5,16.6,32.6z M20.4,36.9c-1.2-0.8-2.3-1.9-3.1-3.2C18.1,34.9,19.2,36,20.4,36.9z
	 M21.5,43.5l0.5-1l0.5,1l1.1,0.2l-0.7,0.8l0.1,1.1l-1-0.5l-1,0.5l0.1-1.1l-0.7-0.8L21.5,43.5z M31.3,43.8l0.5-0.9l0.5,0.9l1.1,0.2
	l-0.7,0.8l0.1,1.1l-1-0.4l-1,0.4l0.1-1.1L30.3,44L31.3,43.8z M38.4,39.4l0.6-1l0.6,1l1.1,0.2l-0.8,0.9l0.1,1.1l-1-0.5l-1,0.5
	l0.1-1.1l-0.8-0.9L38.4,39.4z M42.1,29.6c0.5-0.3,1-0.3,1.6-0.2l1,0.3c0.6,0.2,1,0.5,1.3,0.9c0.3,0.5,0.3,1,0.2,1.6
	c-0.2,0.6-0.4,1-0.8,1.3c-0.4,0.2-0.8,0.3-1.3,0.2l0,0l0.2-0.9c0.3,0.1,0.5,0,0.7-0.1s0.3-0.3,0.4-0.6c0.1-0.3,0-0.6-0.2-0.8
	c-0.2-0.2-0.5-0.4-0.8-0.5l-1-0.3c-0.4-0.1-0.7-0.1-1,0s-0.5,0.4-0.6,0.7c-0.1,0.2-0.1,0.4-0.1,0.6c0,0.1,0,0.3,0.1,0.4l0.9,0.3
	l0.3-1l0.7,0.2l-0.5,1.9L41.4,33c-0.2-0.2-0.3-0.5-0.3-0.8c-0.1-0.3,0-0.8,0.1-1.2C41.4,30.3,41.7,29.9,42.1,29.6z M46.9,27.2v1
	l-5.1,0.2v-1l3.3-2.2l0,0l-3.4,0.1v-1l5.1-0.2v1l-3.3,2.2l0,0L46.9,27.2z"/>
</svg>
