<?xml version="1.0" encoding="utf-8"?>
<!-- Generator: Adobe Illustrator 28.0.0, SVG Export Plug-In . SVG Version: 6.00 Build 0)  -->
<svg version="1.1" id="Layer_1" xmlns="http://www.w3.org/2000/svg" xmlns:xlink="http://www.w3.org/1999/xlink" x="0px" y="0px"
	 viewBox="0 0 54 54" style="enable-background:new 0 0 54 54;" xml:space="preserve">
<style type="text/css">
	.st0{fill-rule:evenodd;clip-rule:evenodd;fill:#FA2A83;}
</style>
<path class="st0" d="M53.9,28.2c0,0.5-0.1,0.9-0.1,1.4c0,0,0,0,0,0c0,0.4-0.1,0.9-0.2,1.3l0,0.1c-0.8,5.3-3.1,10.1-6.6,14.1l0,0
	c-0.3,0.3-0.6,0.6-0.8,0.9c-0.2,0.2-0.5,0.5-0.7,0.7c-0.1,0.1-0.2,0.2-0.2,0.2c-0.3,0.2-0.6,0.5-0.8,0.7l-0.1,0.1
	c-0.4,0.3-0.7,0.6-1.1,0.9c0,0,0,0,0,0c-1.2,0.9-2.5,1.7-3.8,2.4h0c-0.4,0.2-0.9,0.4-1.3,0.6l0,0c-0.4,0.2-0.9,0.4-1.3,0.5l-0.1,0
	c-0.5,0.2-0.9,0.3-1.4,0.5l0,0c-0.4,0.1-0.8,0.2-1.2,0.4l-0.1,0c-0.4,0.1-0.7,0.2-1.1,0.3l-0.2,0c-0.3,0.1-0.7,0.1-1,0.2l-0.3,0.1
	c-0.3,0-0.6,0.1-0.9,0.1c-0.1,0-0.3,0-0.4,0c-0.3,0-0.6,0.1-0.9,0.1c-0.2,0-0.3,0-0.5,0c-0.3,0-0.6,0-0.9,0c-0.2,0-0.3,0-0.5,0
	c-0.4,0-0.9,0-1.3,0c-0.5,0-0.9-0.1-1.4-0.1C10.6,52.6,0,40.9,0,26.9c0-0.4,0-0.7,0-1.1c0-0.5,0.1-0.9,0.1-1.4c0-0.1,0-0.2,0-0.3
	c0-0.3,0.1-0.7,0.1-1c0-0.1,0-0.2,0-0.3c0.1-0.4,0.1-0.7,0.2-1.1c0-0.1,0-0.1,0-0.2c0.1-0.4,0.2-0.8,0.3-1.2l0,0
	C1.9,16.1,4,12.2,6.9,8.9C7,8.9,7.1,8.8,7.1,8.7C7.4,8.5,7.6,8.2,7.8,8c0.3-0.3,0.6-0.6,0.9-0.9c0.3-0.3,0.6-0.6,1-0.9
	c4.1-3.4,9-5.5,14.2-6.1l0.1,0c0.4,0,0.7-0.1,1.1-0.1c0.1,0,0.2,0,0.3,0c0.3,0,0.6,0,0.9,0c0.2,0,0.3,0,0.5,0c0.4,0,0.9,0,1.3,0
	l0.1,0c0.2,0,0.4,0,0.5,0c13.5,0.9,24.2,11.6,25.2,24.8C54,26,54,27.1,53.9,28.2z M28,2.5c-0.4,0-0.7,0-1.1,0
	c-6.1,0-12,2.3-16.5,6.4c-4.8,4.4-7.6,10.5-7.9,17c-0.6,13.5,9.9,25,23.4,25.5c6.5,0.3,12.8-2,17.6-6.4c4.8-4.4,7.6-10.5,7.9-17
	C52,14.6,41.5,3.1,28,2.5z M39.2,37.4h1.5v4.3H30v-4.3h2v-6.2l6.3-6.3c0.9-0.9,2.3-0.9,3.1,0c0.9,0.9,0.9,2.3,0,3.1l-3.7,3.7
	l-0.5-0.5l3.7-3.7c0.6-0.6,0.6-1.6,0-2.2c-0.6-0.6-1.6-0.6-2.2,0l-6.1,6.1v5.9h5.8V36l6.5-5.8v-12c0-0.8-0.7-1.5-1.5-1.5
	c-0.8,0-1.5,0.7-1.5,1.5v5.3h-0.7v-5.3c0-1.2,1-2.2,2.2-2.2c1.2,0,2.2,1,2.2,2.2v12.3l-6.5,5.8C39.2,36.3,39.2,37.4,39.2,37.4z
	 M30.7,38.1v2.8H40v-2.8C40,38.1,30.7,38.1,30.7,38.1z M27.9,5.6c-0.3,0-0.6,0-0.9,0c-6.6,0-12.6,3-16.5,7.8H9.6
	C13.8,8,20.5,4.6,27.9,4.9c6.7,0.3,12.6,3.6,16.4,8.5h-0.9C39.7,8.9,34.2,5.9,27.9,5.6z M12.8,18.1v5.3h-0.7v-5.3
	c0-0.8-0.7-1.5-1.5-1.5S9,17.3,9,18.1v12l6.5,5.8v1.4h5.8v-5.9l-6.1-6.1c-0.3-0.3-0.7-0.4-1.1-0.4c-0.4,0-0.8,0.2-1.1,0.4
	c-0.6,0.6-0.6,1.6,0,2.2l3.7,3.7l-0.5,0.5L12.6,28c-0.9-0.9-0.9-2.3,0-3.1c0.4-0.4,1-0.7,1.6-0.7c0.6,0,1.2,0.2,1.6,0.7l6.3,6.3v6.2
	h2v4.3H13.3v-4.3h1.5v-1.1l-6.5-5.8V18.1c0-1.2,1-2.2,2.2-2.2C11.8,15.9,12.8,16.9,12.8,18.1z M14,38.1v2.8h9.3v-2.8H14z M27,24.2
	c-4.5,0-8.1-2.1-8.1-4.7c0-0.2,0-0.4,0.1-0.6c0.6,2.3,3.9,4,8,4c4.1,0,7.4-1.8,8-4c0,0.2,0.1,0.4,0.1,0.6C35,22.2,31.4,24.2,27,24.2
	z M27,20.5c-4.5,0-8.1-2.1-8.1-4.7c0-0.9,0.4-1.7,1.2-2.4c1.4-1.3,4-2.2,6.9-2.2c2.9,0,5.5,0.9,6.9,2.2c0.7,0.7,1.2,1.5,1.2,2.4
	C35,18.4,31.4,20.5,27,20.5z M33.4,15.6H32c-0.1-0.5-0.3-0.8-0.6-1.1c-0.5-0.5-1.4-0.7-2.6-0.7c-0.9,0-1.5,0.2-2,0.6
	c-0.3,0.2-0.6,0.6-0.9,1.2h-3.4c0-0.3,0.3-0.6,0.8-0.8c0.2-0.1,0.5-0.1,0.9-0.2V14c-0.8,0-1.4,0.2-1.9,0.5c-0.5,0.3-0.8,0.7-0.8,1.2
	h-0.9v0.4h0.9c0,0.5,0.3,0.9,0.9,1.2c0.6,0.3,1.2,0.5,1.9,0.5c0.8,0,1.4-0.1,1.9-0.4c0.5-0.3,0.8-0.7,1-1.3h3.8
	c-0.1,0.5-0.4,0.8-0.9,0.9c-0.3,0.1-0.8,0.2-1.4,0.2v0.7c0.8,0,1.4-0.1,1.9-0.2c0.9-0.3,1.4-0.8,1.4-1.6h1.4
	C33.4,16.1,33.4,15.6,33.4,15.6z M27.8,15c0.3-0.3,0.7-0.4,1.3-0.4c0.4,0,0.7,0,0.9,0.2c0.6,0.2,0.9,0.5,0.9,0.9h-3.7
	C27.5,15.3,27.6,15.1,27.8,15z M25.3,16.7C25,17,24.7,17,24.2,17c-0.4,0-0.7-0.1-1.1-0.2c-0.3-0.2-0.5-0.4-0.6-0.8h3.3
	C25.7,16.4,25.5,16.6,25.3,16.7z M27,22.4c-4.5,0-8.1-2.1-8.1-4.7c0-0.2,0-0.4,0.1-0.6c0.6,2.3,3.9,4,8,4c4.1,0,7.4-1.7,8-4
	c0,0.2,0.1,0.4,0.1,0.6C35,20.3,31.4,22.4,27,22.4z M26.1,48.4c5.8,0.3,11.1-1.8,15-5.3h1c-3.9,3.8-9.3,6-15.1,6c-0.3,0-0.6,0-1,0
	c-5.5-0.2-10.5-2.5-14.2-6h1C16.5,46.1,21,48.1,26.1,48.4z"/>
</svg>
