<?xml version="1.0" encoding="utf-8"?>
<!-- Generator: Adobe Illustrator 25.3.1, SVG Export Plug-In . SVG Version: 6.00 Build 0)  -->
<svg version="1.1" id="Layer_1" xmlns="http://www.w3.org/2000/svg" xmlns:xlink="http://www.w3.org/1999/xlink" x="0px" y="0px"
	 viewBox="0 0 400 400" style="enable-background:new 0 0 400 400;" xml:space="preserve">
<style type="text/css">
	.st0{fill:#3D5A98;}
	.st1{fill:#FFFFFF;}
</style>
<g>
	<path class="st0" d="M353.9,372.9c10.5,0,19.1-8.5,19.1-19.1V46.1c0-10.5-8.5-19.1-19.1-19.1H46.1c-10.5,0-19.1,8.5-19.1,19.1
		v307.7c0,10.5,8.5,19.1,19.1,19.1H353.9z"/>
	<path class="st1" d="M265.7,372.9V239h45l6.7-52.2h-51.7v-33.3c0-15.1,4.2-25.4,25.9-25.4l27.6,0V81.4c-4.8-0.6-21.2-2.1-40.3-2.1
		c-39.9,0-67.1,24.3-67.1,69v38.5h-45.1V239h45.1v133.9H265.7z"/>
</g>
</svg>
