<?xml version="1.0" encoding="utf-8"?>
<!-- Generator: Adobe Illustrator 25.3.1, SVG Export Plug-In . SVG Version: 6.00 Build 0)  -->
<svg version="1.1" id="Layer_1" xmlns="http://www.w3.org/2000/svg" xmlns:xlink="http://www.w3.org/1999/xlink" x="0px" y="0px"
	 viewBox="0 0 400 400" style="enable-background:new 0 0 400 400;" xml:space="preserve">
<style type="text/css">
	.st0{fill:url(#SVGID_1_);}
	.st1{fill:url(#path69_1_);}
	.st2{fill:url(#path77_1_);}
	.st3{fill:url(#path968_1_);}
	.st4{fill:#FFFFFF;}
</style>
<g>
	
		<linearGradient id="SVGID_1_" gradientUnits="userSpaceOnUse" x1="196.5276" y1="670.2642" x2="200.9983" y2="66.7314" gradientTransform="matrix(1 0 0 -1 0 402)">
		<stop  offset="0.3379" style="stop-color:#5B8BEB"/>
		<stop  offset="0.7794" style="stop-color:#2742A2"/>
		<stop  offset="1" style="stop-color:#112283"/>
	</linearGradient>
	<rect x="27" y="27.5" class="st0" width="346" height="346"/>
	<g id="g942" transform="matrix(1.3719271,0,0,1.3719271,169.4857,-38.493576)">
		<g id="g71" transform="matrix(3.3097462,0,0,3.3097462,-688.02908,65.088537)">
			
				<linearGradient id="path69_1_" gradientUnits="userSpaceOnUse" x1="56.8657" y1="110.7571" x2="106.5436" y2="110.3723" gradientTransform="matrix(25.2905 0 0 25.2905 -1253.9974 -2766.2629)">
				<stop  offset="9.999999e-08" style="stop-color:#FFB900"/>
				<stop  offset="0.3376" style="stop-color:#F38000"/>
				<stop  offset="0.5673" style="stop-color:#F83C72"/>
				<stop  offset="0.78" style="stop-color:#FC1CBE"/>
				<stop  offset="0.93" style="stop-color:#FE08ED"/>
				<stop  offset="1" style="stop-color:#FF00FF"/>
			</linearGradient>
			<path id="path69" class="st1" d="M214.8,59.6c-0.4,0-0.9-0.1-1.2-0.3c-3.3-1.9-27.4-17-28.3-17.5c-0.7-0.3-1.2-1-1.2-1.7V19
				c0-0.8,0.4-1.6,1.1-2l0.2-0.1c2.3-1.4,10.1-6.2,11.4-6.9c0.3-0.2,0.6-0.3,0.9-0.3s0.6,0.1,0.9,0.2c0,0,10.9,7.1,12.6,7.8
				c1.2,0.6,2.4,0.8,3.7,0.8c1.4,0.1,2.9-0.3,4.2-1c1.6-0.9,12.1-7.5,12.2-7.5c0.3-0.2,0.6-0.2,0.9-0.2c0.3,0,0.7,0.1,0.9,0.3
				c1.4,0.8,11.1,6.7,11.5,7c0.7,0.4,1.1,1.2,1.1,1.9v21.2c-0.1,0.8-0.6,1.4-1.2,1.7c-0.9,0.5-24.9,15.6-28.3,17.5
				C215.6,59.5,215.2,59.6,214.8,59.6"/>
		</g>
		<g id="g79" transform="matrix(3.3097462,0,0,3.3097462,-688.02908,65.088537)">
			
				<linearGradient id="path77_1_" gradientUnits="userSpaceOnUse" x1="57.5419" y1="111.5445" x2="108.1907" y2="83.5007" gradientTransform="matrix(25.2905 0 0 25.2905 -1253.9974 -2766.2629)">
				<stop  offset="0" style="stop-color:#EE0A3F"/>
				<stop  offset="1" style="stop-color:#EE0A3F;stop-opacity:0"/>
			</linearGradient>
			<path id="path77" class="st2" d="M214.6,59.6h0.1c0.4,0,0.9-0.1,1.2-0.3c3.3-1.9,27.3-17,28.3-17.5c0.7-0.3,1.2-1,1.2-1.7V19
				c0-0.3-0.1-0.7-0.2-1.1l-30.6,16.8L214.6,59.6"/>
		</g>
		<g id="g970" transform="matrix(-3.2744849,0,0,3.2744849,-467.18522,65.934126)">
			
				<linearGradient id="path968_1_" gradientUnits="userSpaceOnUse" x1="95.4929" y1="111.3962" x2="120.2314" y2="91.4679" gradientTransform="matrix(24.7547 0 0 24.7547 -2500.2273 -2720.4822)">
				<stop  offset="0" style="stop-color:#ED6600"/>
				<stop  offset="1" style="stop-color:#F98200"/>
			</linearGradient>
			<path id="path968" class="st3" d="M-149.4,59.7h0.1c0.4,0,0.9-0.1,1.2-0.3c3.3-1.9,27.3-17,28.3-17.5c0.7-0.3,1.2-1,1.2-1.7V19
				c0-0.3-0.1-0.7-0.2-1.1l-30.6,16.8L-149.4,59.7"/>
		</g>
	</g>
	<g>
		<g id="g35_1_" transform="matrix(12.509277,0,0,12.509277,438.06846,8.29825)">
			<path id="path33_1_" class="st4" d="M-24.4,12.8h1v4.9h1.8v0.9h-2.8V12.8"/>
		</g>
		<g id="g41_1_" transform="matrix(12.509277,0,0,12.509277,438.06846,8.29825)">
			<path id="path39_1_" class="st4" d="M-19.3,14.3c0.6,0,1.1,0.2,1.4,0.7v-0.6h0.9v4.3h-0.9v-0.6c-0.3,0.4-0.8,0.7-1.4,0.7
				c-1.2,0-2.1-1-2.1-2.2C-21.4,15.3-20.5,14.3-19.3,14.3 M-19.1,15.1c-0.8,0-1.3,0.6-1.3,1.4s0.5,1.4,1.3,1.4s1.3-0.6,1.3-1.4
				S-18.4,15.1-19.1,15.1"/>
		</g>
		<g id="g47_1_" transform="matrix(12.509277,0,0,12.509277,438.06846,8.29825)">
			<path id="path45_1_" class="st4" d="M-16.3,17.9l2.3-2.7h-2.2v-0.8h3.4v0.8l-2.2,2.7h2.3v0.8h-3.5V17.9"/>
		</g>
	</g>
</g>
</svg>
