<?xml version="1.0" encoding="utf-8"?>
<!-- Generator: Adobe Illustrator 25.3.1, SVG Export Plug-In . SVG Version: 6.00 Build 0)  -->
<svg version="1.1" id="Layer_1" xmlns="http://www.w3.org/2000/svg" xmlns:xlink="http://www.w3.org/1999/xlink" x="0px" y="0px"
	 viewBox="0 0 400 400" style="enable-background:new 0 0 400 400;" xml:space="preserve">
<style type="text/css">
	.st0{fill:#E75124;}
	.st1{fill:#FFFFFF;}
</style>
<path class="st0" d="M61.1,124h70c2.1-23.7,8.7-45,18.2-61.5C162,40.7,179.8,27.3,200,27.3s38,13.5,50.6,35.2
	c9.5,16.4,16.1,37.8,18.2,61.5h70c8.3,0,15.7,6.8,15.1,15.1l-14,196c-1.8,24.6-17.2,38.6-39.6,38.6H99.8
	c-24.9,0-38.1-17.4-39.6-38.6L46.1,139.2C45.5,130.9,52.8,124,61.1,124L61.1,124z M148.7,124h102.5c-2-20.6-7.7-38.8-15.8-52.7
	C226,55,213.4,44.8,200,44.8c-13.5,0-26,10.1-35.5,26.5C156.4,85.2,150.8,103.5,148.7,124z"/>
<path class="st1" d="M149.1,304.9c-3.3-2.2-4.1-6.6-1.9-9.9c2.2-3.3,6.6-4.1,9.9-1.9c2,1.4,4.2,2.8,6.5,4.2
	c16.4,10,31.4,14.9,44,14.9c11.3,0,20.6-4.3,26.4-12.9l0,0c0.4-0.7,0.7-1,0.8-1.3c1.7-2.7,2.9-5.6,3.7-8.4
	c1.7-5.8,1.4-11.7-0.9-17.1c-2.5-5.7-7.3-11.2-14.9-15.7l0,0c-5-3.1-11.3-5.8-18.8-7.8c-19.2-5.4-33.3-13-40.9-23.3
	c-8.4-11.3-9-24.8-0.1-41.3c6-10.9,18.1-17.7,33.6-18.9c13.3-1,29.3,2.1,45.6,10.4c3.5,1.8,4.9,6,3.1,9.6c-1.9,3.5-6,4.9-9.6,3.1
	c-13.9-7.1-27.1-9.8-38-8.9c-10.5,0.8-18.5,4.9-22,11.4c-6,10.9-5.9,19.4-1,26c5.6,7.5,17.2,13.4,33.4,18c8.7,2.5,16.2,5.7,22.3,9.4
	l0,0c10.1,6.1,16.9,13.9,20.6,22.2c3.7,8.7,4.2,17.8,1.7,26.7c-1.1,4-2.9,8-5.3,11.9c-0.6,0.8-0.9,1.5-1.2,2l0,0
	c-8.7,12.7-22,19.1-38.1,19.2c-15.2,0-32.8-5.6-51.4-16.9C154,308.2,151.6,306.7,149.1,304.9z"/>
</svg>
