<?xml version="1.0" encoding="utf-8"?>
<!-- Generator: Adobe Illustrator 25.3.1, SVG Export Plug-In . SVG Version: 6.00 Build 0)  -->
<svg version="1.1" id="Layer_1" xmlns="http://www.w3.org/2000/svg" xmlns:xlink="http://www.w3.org/1999/xlink" x="0px" y="0px"
	 viewBox="0 0 400 269.3" style="enable-background:new 0 0 400 269.3;" xml:space="preserve">
<style type="text/css">
	.st0{fill:#005A9B;}
	.st1{fill-rule:evenodd;clip-rule:evenodd;fill:#FFFFFF;}
	.st2{fill-rule:evenodd;clip-rule:evenodd;fill:#005A9B;}
	.st3{fill-rule:evenodd;clip-rule:evenodd;fill:#FAA929;}
</style>
<g id="Layer_2_1_">
	<g id="Layer_1-2">
		<polygon class="st0" points="393.2,269.3 6.8,269.3 0,269.3 0,262.5 0,6.8 0,0 6.8,0 393.2,0 400,0 400,6.8 400,262.5 400,269.3 
			393.2,269.3 		"/>
		<polygon class="st1" points="393.2,262.5 6.8,262.5 6.8,6.8 393.2,6.8 393.2,262.5 		"/>
		<polygon class="st2" points="146.4,176.1 171.6,93.4 193.9,93.4 168.8,176.1 146.4,176.1 		"/>
		<path class="st2" d="M136.4,93.4l-20.1,35.1c-5.1,9.2-8.1,13.8-9.6,19.6h-0.3c0.4-7.4-0.7-16.4-0.8-21.5l-2.2-33.2H65.8l-0.4,2.2
			c9.7,0,15.4,4.9,17,14.8l7.3,65.7h23.2l46.9-82.7L136.4,93.4z"/>
		<path class="st2" d="M310.6,176.1l-0.6-12.3h-28l-5.7,12.3H252l44-82.6h29.8l7.5,82.6H310.6z M308,127.3c-0.3-6.5-0.3-13,0-19.4
			h-0.3c-1.4,4.1-7.2,16.4-9.8,22.5l-8.3,18.1h19.6L308,127.3z"/>
		<path class="st2" d="M217.4,178.5c-11.9,0.1-23.7-3.2-33.8-9.5l10.7-16.3c6.7,3.8,12,8.1,24.2,8.1c3.9,0,7.7-1,9.8-4.7
			c3.1-5.4-0.7-8.3-9.5-13.2l-4.3-2.8c-13-8.9-18.6-17.3-12.5-32c3.9-9.4,14.2-16.5,31.2-16.5c10.5,0.2,20.7,3.7,29.1,10L250.1,116
			c-6.2-5.1-11.4-7.6-17.4-7.6c-4.7,0-8.3,1.8-9.6,4.3c-2.3,4.6,0.8,7.8,7.6,12l5.1,3.3c15.7,9.9,19.5,20.3,15.6,30.1
			C244.6,174.8,231.4,178.5,217.4,178.5L217.4,178.5z"/>
		<path class="st2" d="M340,104.6h-1v-5.9h2.2c1.4,0,2.1,0.5,2.1,1.7c0.1,0.8-0.6,1.6-1.4,1.6c0,0-0.1,0-0.1,0l1.7,2.6h-1.1
			l-1.5-2.5H340C340,102.1,340,104.6,340,104.6z M341.1,101.3c0.7,0,1.4-0.1,1.4-0.9s-0.7-0.8-1.3-0.8H340v1.7H341.1z M341.1,106.9
			c-2.9,0.1-5.4-2.3-5.4-5.2c-0.1-2.9,2.3-5.4,5.2-5.4s5.4,2.3,5.4,5.2c0,0,0,0.1,0,0.1c0.1,2.8-2.1,5.2-4.9,5.3
			C341.3,106.9,341.2,106.9,341.1,106.9z M341.1,97.2c-2.4-0.2-4.6,1.6-4.8,4.1s1.6,4.6,4.1,4.8c2.4,0.2,4.6-1.6,4.8-4.1
			c0-0.1,0-0.2,0-0.3c0.1-2.3-1.6-4.3-3.9-4.4C341.2,97.2,341.2,97.2,341.1,97.2z"/>
		<polygon class="st3" points="383.7,201.9 17,201.9 17,250.9 383.7,250.9 383.7,201.9 		"/>
		<polygon class="st2" points="383,19 16.3,19 16.3,68.1 383,68.1 383,19 		"/>
		<path class="st2" d="M374.6,247.4h-1v-5.9h2.2c1.4,0,2.2,0.5,2.2,1.7c0.1,0.8-0.6,1.6-1.4,1.6c0,0-0.1,0-0.1,0l1.6,2.6H377
			l-1.5-2.5h-0.9L374.6,247.4L374.6,247.4z M375.7,244.1c0.7,0,1.4-0.1,1.4-0.9c0-0.7-0.7-0.8-1.3-0.8h-1.2v1.7L375.7,244.1z
			 M375.7,249.7c-2.9,0.1-5.4-2.3-5.5-5.2s2.3-5.4,5.2-5.5c2.9-0.1,5.4,2.3,5.5,5.2c0,0,0,0.1,0,0.1c0.1,2.8-2.1,5.2-4.9,5.3
			C375.9,249.7,375.8,249.7,375.7,249.7z M375.7,240c-2.4-0.2-4.6,1.6-4.7,4.1s1.6,4.6,4.1,4.7c2.4,0.2,4.6-1.6,4.7-4.1
			c0-0.1,0-0.2,0-0.3c0.1-2.3-1.6-4.3-3.9-4.4C375.9,240,375.8,240,375.7,240z"/>
	</g>
</g>
</svg>
