<?xml version="1.0" encoding="utf-8"?>
<!-- Generator: Adobe Illustrator 25.3.1, SVG Export Plug-In . SVG Version: 6.00 Build 0)  -->
<svg version="1.1" id="Layer_1" xmlns="http://www.w3.org/2000/svg" xmlns:xlink="http://www.w3.org/1999/xlink" x="0px" y="0px"
	 viewBox="0 0 400 114.6" style="enable-background:new 0 0 400 114.6;" xml:space="preserve">
<style type="text/css">
	.st0{fill:#0FA8E0;}
	.st1{fill:#32B34A;}
</style>
<g id="Layer_2_1_">
	<g id="Layer_1-2">
		<path class="st0" d="M117.7,43.1c-1.6-1.6-3.8-2.5-6-2.4c-3.6,0-6.2,1.7-7.8,5.1c-3.5-4.1-8.3-6.2-14.3-6.2
			c-7.1-0.1-13.8,3-18.3,8.4c-5,5.6-7.4,12.5-7.4,20.5c-0.2,7.5,2.5,14.9,7.4,20.5c4.5,5.4,11.3,8.5,18.3,8.4
			c6.1,0,10.8-2.1,14.3-6.2c1.6,3.4,4.2,5.1,7.8,5.1c4.5,0.1,8.2-3.4,8.3-7.9c0-0.1,0-0.2,0-0.4V49C120,46.8,119.2,44.7,117.7,43.1
			 M100.3,78.4c-3.9,4.6-10.8,5.3-15.4,1.4c-0.5-0.4-1-0.9-1.4-1.4c-2.1-2.8-3.1-6.2-3-9.7c-0.1-3.5,0.9-6.9,3-9.7
			c3.9-4.6,10.8-5.3,15.4-1.4c0.5,0.4,1,0.9,1.4,1.4c2.1,2.8,3.1,6.2,3,9.7C103.4,72.2,102.3,75.6,100.3,78.4"/>
		<path class="st0" d="M138.9,94.2c-3.4,3.2-8.6,3.2-12,0c-1.6-1.6-2.4-3.7-2.3-5.9V18.1c-0.1-2.2,0.8-4.3,2.3-5.9
			c3.4-3.2,8.6-3.2,12,0c1.6,1.6,2.4,3.7,2.4,5.9v70.2C141.3,90.5,140.5,92.6,138.9,94.2"/>
		<path class="st0" d="M194.2,48.1c-5.3-5.6-12.1-8.4-20.4-8.4s-15.1,2.8-20.3,8.3c-5.2,5.5-7.9,12.4-7.9,20.6
			c0,8.2,2.6,15.1,7.9,20.7c5.2,5.5,12,8.3,20.3,8.3s15.1-2.8,20.4-8.4c5.1-5.5,7.7-12.3,7.7-20.5C201.9,60.4,199.3,53.6,194.2,48.1
			 M182.2,78.4c-3.9,4.6-10.8,5.3-15.4,1.4c-0.5-0.4-1-0.9-1.4-1.4c-2.1-2.8-3.2-6.2-3.1-9.7c-0.1-3.5,1-6.9,3.1-9.7
			c3.9-4.6,10.8-5.3,15.4-1.4c0.5,0.4,1,0.9,1.4,1.4c2.1,2.8,3.1,6.2,3,9.7C185.3,72.1,184.3,75.6,182.2,78.4"/>
		<path class="st0" d="M54.5,41.7c5.9-7.6,8.9-12.7,8.9-15.4c0-6.1-3.8-9.2-11.5-9.2H11.3c-3.2,0-5.6,0.8-7.4,2.3
			c-1.7,1.5-2.7,3.6-2.6,5.9c-0.1,2.3,0.9,4.4,2.6,5.9c1.8,1.5,4.2,2.3,7.4,2.3h27.8l-35.6,46c-2.3,3-3.5,5.7-3.5,8
			c0,6.7,4.4,10,13.3,10h41.8c6.7,0,10-2.8,10-8.4s-3.3-8.4-10-8.4H24.3L54.5,41.7z"/>
		<path class="st1" d="M255.4,33.2h-11.2v23.2h11.2c3.1,0.1,6-1.1,8.2-3.3c2.1-2.2,3.2-5.2,3.1-8.3c0.1-3.1-1-6.1-3.1-8.3
			C261.5,34.3,258.5,33.1,255.4,33.2"/>
		<path class="st1" d="M311.2,55.1c-3.3-0.1-6.4,1.3-8.4,3.9c-2.1,2.8-3.1,6.2-3,9.7c-0.1,3.5,0.9,6.9,3,9.7
			c3.8,4.6,10.7,5.2,15.3,1.4c0.5-0.4,1-0.9,1.4-1.4c2.1-2.8,3.1-6.2,3-9.7c0.1-3.5-0.9-6.9-3-9.7C317.6,56.4,314.5,55,311.2,55.1"
			/>
		<path class="st1" d="M390.2,0H228.1c-5.4,0-9.8,4.4-9.8,9.8v95c0,5.4,4.4,9.8,9.8,9.8c0,0,0,0,0,0h128c-1.3-1.1-2-2.8-2-4.5
			c0-1.5,0.3-3,1-4.4l6-13.4l-16.7-41.7c-0.5-1.2-0.7-2.6-0.7-3.9c0-1.8,0.9-3.5,2.3-4.6c1.3-1.2,3-1.8,4.8-1.9
			c3.7,0,6.2,1.8,7.6,5.3L368.7,74l11.1-28.5c1.4-3.6,3.9-5.3,7.6-5.3c1.8,0,3.5,0.7,4.8,1.9c1.5,1.1,2.3,2.8,2.3,4.6
			c0,1.3-0.2,2.7-0.7,3.9l-24.7,60c-0.5,1.5-1.4,2.8-2.4,4h23.6c5.4,0,9.8-4.4,9.8-9.8c0,0,0,0,0,0v-95C400,4.4,395.6,0,390.2,0
			 M275.7,63.9c-5.1,4.7-11.6,7-19.3,7h-12.2v18c0.1,2.3-0.7,4.6-2.3,6.3c-3.4,3-8.5,3-11.8,0c-1.6-1.7-2.4-4-2.3-6.3V27.3
			c0-5.7,2.9-8.5,8.6-8.5h19.4c8.1,0,14.8,2.4,20.1,7.3s7.9,11.2,7.9,19C283.8,52.8,281.1,59.2,275.7,63.9 M339.2,88.2
			c0,2.2-0.8,4.3-2.3,5.8c-1.6,1.6-3.8,2.5-6,2.4c-3.5,0-6.1-1.7-7.8-5.1c-3.5,4.1-8.2,6.1-14.3,6.1c-7,0.1-13.7-3-18.2-8.4
			c-4.9-5.6-7.4-12.4-7.4-20.4c-0.2-7.5,2.4-14.8,7.4-20.4c4.5-5.4,11.2-8.5,18.2-8.4c6,0,10.8,2,14.3,6.1c1.6-3.4,4.2-5.1,7.8-5.1
			c2.2-0.1,4.4,0.8,6,2.4c1.5,1.6,2.4,3.7,2.3,5.9L339.2,88.2z"/>
	</g>
</g>
</svg>
