<?xml version="1.0" encoding="utf-8"?>
<!-- Generator: Adobe Illustrator 25.3.1, SVG Export Plug-In . SVG Version: 6.00 Build 0)  -->
<svg version="1.1" id="Layer_1" xmlns="http://www.w3.org/2000/svg" xmlns:xlink="http://www.w3.org/1999/xlink" x="0px" y="0px"
	 viewBox="0 0 400 400" style="enable-background:new 0 0 400 400;" xml:space="preserve">
<path d="M331.8,27.5H68.2C45.5,27.5,27,46,27,68.7v263.6c0,22.7,18.5,41.2,41.2,41.2h263.6c22.7,0,41.2-18.5,41.2-41.2V68.7
	C373,46,354.5,27.5,331.8,27.5 M298.9,178.5c-1.9,0.2-3.8,0.3-5.7,0.3c-20.8,0-40.2-10.5-51.7-27.9v95c0,38.8-31.4,70.3-70.3,70.3
	s-70.3-31.4-70.3-70.3s31.4-70.3,70.3-70.3l0,0c1.5,0,2.9,0.1,4.3,0.2v34.6c-1.4-0.2-2.9-0.4-4.3-0.4c-19.8,0-35.8,16.1-35.8,35.8
	s16.1,35.8,35.8,35.8c19.8,0,37.3-15.6,37.3-35.4L209,84.9h33.1c3.1,29.7,27.1,52.9,56.9,55.1L298.9,178.5"/>
</svg>
