<?xml version="1.0" encoding="utf-8"?>
<!-- Generator: Adobe Illustrator 25.3.1, SVG Export Plug-In . SVG Version: 6.00 Build 0)  -->
<svg version="1.1" id="Layer_1" xmlns="http://www.w3.org/2000/svg" xmlns:xlink="http://www.w3.org/1999/xlink" x="0px" y="0px"
	 viewBox="0 0 400 251.2" style="enable-background:new 0 0 400 251.2;" xml:space="preserve">
<style type="text/css">
	.st0{fill:#1E306D;}
	.st1{fill:#ED8313;}
	.st2{fill:#E10020;}
	.st3{fill-rule:evenodd;clip-rule:evenodd;fill:#1E306D;}
	.st4{fill:#FFFFFF;}
	.st5{fill-rule:evenodd;clip-rule:evenodd;fill:#FFFFFF;}
</style>
<g id="Layer_2_1_">
	<g id="Layer_1-2">
		<polygon class="st0" points="0,0 0,251.2 400,251.2 400,0 0,0 		"/>
		<path class="st1" d="M162.9,125.9c0-61.6,49.9-111.5,111.5-111.5s111.5,49.9,111.5,111.5S336,237.4,274.4,237.4l0,0
			C212.8,237.4,162.9,187.5,162.9,125.9C162.9,126,162.9,125.9,162.9,125.9z"/>
		<path class="st2" d="M199.7,43c-3.5,3.1-6.7,6.4-9.7,10h19.8c0,0,6.8,7.3,9.3,12.9h-38.8c0,0-3.8,5.9-6.2,10.9h51.3
			c0,0,4.7,8.8,5.7,13.4h-62.3c-1.2,3.5-2.2,7-3,10.5l68.2-0.1c1.9,8.6,6.4,33.5-3,61l-62,0.1c1.2,3.8,2.6,7.5,4.3,11.1h53.2
			c-2.1,4.5-5.3,10.1-7.1,12.9h-39c2.3,3.6,4.8,7,7.5,10.3h24c-4.5,6.2-12.1,12.7-12.1,12.7h-0.2l0.2,0.1
			C154,250,83.6,246.3,42.4,200.5S4.9,84.3,50.7,43.1C93,5,157.3,4.9,199.7,43z"/>
		<path class="st0" d="M144.7,110.1l-1.8,10l-9.8-0.3c0,0-4.9,1.3-4.9,3.3s3.6,4.6,9,7s5.7,8.7,5.1,13.1s-1.3,13.4-17,13.9
			c-9,0.2-13.9-1.6-13.9-1.6l2-10.3c0,0,11.6,3.1,14.2,1.3c2.6-1.8,5.7-4.9,0.8-7s-12.9-5.4-12.9-13.6s3.3-12.9,8.5-15.2
			C129.2,108.5,138.2,108.8,144.7,110.1L144.7,110.1z"/>
		<polygon class="st0" points="67.4,156 56.1,156 62.7,116.9 48.6,155.8 40.8,155.8 38.9,115.4 32,156 21.2,156 31.4,96.3 
			44.4,96.3 49,130.7 64.2,96.3 77.6,96.3 67.4,156 		"/>
		<path class="st0" d="M154.9,156.9c-3.7,0-6.3-0.9-7.9-2.4s-2.4-4.2-2.4-7.4c0-0.8,0.1-1.6,0.2-2.4c0.1-0.8,0.3-1.8,0.4-2.9
			l6.9-38.2h10.7l-1.6,7.5h10l-1.7,9.4h-10l-2.7,16.3c-0.2,1.1-0.4,2.1-0.5,3.4c-0.2,0.9-0.2,1.9-0.3,2.9c0,1.7,0.3,2.8,1,3.4
			c0.9,0.7,2,1.1,3.1,1c0.7,0,1.4-0.2,2.1-0.4c0.8-0.3,1.5-0.6,2.2-1h0.9l-1.7,9.6c-1.2,0.4-2.5,0.8-3.8,0.9
			C158.2,156.7,156.6,156.9,154.9,156.9L154.9,156.9z"/>
		<path class="st0" d="M231.4,123.6c-2.3-1.8-7.5-1.4-8.6,2.2l-5.1,30.1H207l7.7-44.9h10.7l-0.2,3.6c2-2,4.3-3.8,10-3.6
			C235.5,111.1,231.7,117.8,231.4,123.6L231.4,123.6z"/>
		<path class="st0" d="M251.6,157.2c-5.9,0-10.6-2-13.7-6s-4.9-9.7-4.9-17.1c-0.1-5.4,0.6-10.7,2.1-15.9c1.3-4.4,3.3-8.6,5.9-12.3
			c2.3-3.2,5.3-5.9,8.8-7.9c3.3-1.9,7-2.9,10.8-2.9c2.9,0,5.7,0.5,8.5,1.3c1.3,0.4,3.7,1.6,3.7,1.6l-2.5,14.2
			c-1.1-1.4-2.3-2.7-3.7-3.7c-1.9-1.3-4.2-1.9-6.5-1.9c-4.4,0-8,2.4-10.9,7.2c-2.9,4.8-4.3,10.9-4.3,18.3c0,4.8,0.8,8.3,2.4,10.4
			c1.7,2.1,4.2,3.2,6.9,3.1c2.7,0,5.4-0.7,7.7-2.2c1.2-0.7,2.3-1.5,3.3-2.4l-2.5,13.5c0,0-1.3,0.6-1.9,0.8c-1.5,0.6-2.8,1-4,1.3
			C255,157.1,253.3,157.2,251.6,157.2L251.6,157.2z"/>
		<path class="st0" d="M93.7,154.5c-0.4,0.3-0.8,0.6-1.2,0.8c-1,0.5-2,1-3.1,1.4c-1.3,0.3-2.7,0.5-4.1,0.5c-2.6,0.1-5.1-1.1-6.7-3.1
			c-1.8-2.4-2.7-5.3-2.6-8.2c-0.1-3.1,0.5-6.2,1.8-9.1c1.2-2.4,3.2-4.5,5.6-5.9c2.5-1.5,5.3-2.5,8.1-3l2.2-0.4
			c2.7-0.5,5.4-0.9,8.1-1c0-0.3,0-0.6,0.1-0.8c0.1-0.4,0.1-0.8,0.1-1.2c0.1-1.6-0.6-3.1-2-4c-1.8-0.8-3.8-1.2-5.8-1.1h-0.5
			c-1.8,0.1-3.6,0.5-5.3,1.2c-1.6,0.6-3.2,1.2-4.8,2h-1l1.7-10.6c1.9-0.6,3.8-1.1,5.7-1.4c1.2-0.3,2.5-0.5,3.7-0.6
			c1.3-0.2,2.7-0.3,4-0.2c5.2,0,9,1,11.5,2.8s3.6,4.7,3.6,8.6c0,0.7,0,1.3-0.1,2c-0.1,0.8-0.2,1.6-0.2,2.3l-5.2,30.6H96.7l0.8-4.8
			c-0.6,0.6-1.5,1.3-2.4,2.1C94.6,153.7,94.1,154.1,93.7,154.5L93.7,154.5z M93.7,135.8c-1,0.2-2,0.5-2.9,0.9
			c-1.2,0.5-2.1,1.4-2.8,2.5c-0.7,1.3-1.1,2.8-1,4.3c-0.1,1.2,0.3,2.4,1.2,3.2c1.1,0.7,2.4,1.1,3.7,1c0.6,0,1.1-0.1,1.7-0.4
			c0.6-0.2,1.1-0.4,1.7-0.6c1.2-0.7,2.3-1.6,3.3-2.5l1.6-9.6c-1.8,0.2-3.7,0.5-5.3,0.9C94.5,135.6,94,135.7,93.7,135.8L93.7,135.8z"
			/>
		<path class="st0" d="M185.9,118.8c-1.5,0.3-2.8,1-3.8,2.2c-1.7,1.9-2.8,4.2-3.4,6.7H193c0-0.5,0.1-0.8,0.1-1.3s0.1-0.8,0.1-1.2
			c0.1-1.8-0.4-3.5-1.5-4.9c-1.1-1.1-2.6-1.8-4.1-1.7C187,118.6,186.4,118.7,185.9,118.8L185.9,118.8z M185.9,147.1h1.6
			c2.3,0,4.6-0.5,6.6-1.6c1.9-1,3.7-2.2,5.4-3.6h1.2l-2,11.6c-2,1.2-4.2,2.1-6.5,2.8c-2,0.6-4.1,0.9-6.3,1h-1
			c-5.7,0-10.1-1.7-13.1-5.1s-4.6-8-4.6-14c0-3.8,0.5-7.6,1.5-11.2c0.9-3.3,2.4-6.3,4.3-9.1c1.8-2.5,4.1-4.5,6.8-6
			c1.9-1,4-1.6,6.1-2c1-0.1,1.9-0.1,2.9-0.1c4.9,0,8.6,1.3,11.2,4.1s3.7,6.7,3.7,12c0,1.8-0.1,3.6-0.4,5.4c-0.2,1.7-0.6,3.4-1,5.1
			h-24.7v1c-0.1,2.7,0.8,5.3,2.5,7.3c1.5,1.6,3.6,2.5,5.8,2.6L185.9,147.1z"/>
		<path class="st0" d="M285.8,154.5c-0.4,0.3-0.9,0.6-1.3,0.8c-1,0.6-2,1-3.1,1.4c-1.3,0.3-2.7,0.5-4,0.5c-2.6,0.1-5.1-1.1-6.8-3.1
			c-1.8-2.4-2.7-5.3-2.6-8.2c-0.1-3.1,0.6-6.2,1.9-9.1c1.2-2.4,3.1-4.5,5.5-5.9c2.5-1.5,5.3-2.5,8.2-3l2.2-0.4c2.6-0.5,5.3-0.9,8-1
			c0.1-0.2,0.1-0.5,0.2-0.8s0.1-0.7,0.1-1.2c0.1-1.6-0.6-3.1-1.9-4.1c-1.8-0.8-3.8-1.2-5.8-1.1h-0.5c-1.8,0.1-3.6,0.5-5.3,1.2
			c-1.6,0.6-3.2,1.2-4.8,2h-1l1.6-10.6c1.9-0.6,3.8-1.1,5.8-1.4c1.2-0.3,2.5-0.5,3.7-0.6c1.3-0.2,2.7-0.3,4-0.2c5.2,0,9,1,11.5,2.8
			s3.6,4.7,3.6,8.6c0,0.7,0,1.3-0.1,2c-0.1,0.8-0.2,1.6-0.2,2.3l-5.2,30.6h-10.6l0.8-4.8c-0.7,0.6-1.5,1.3-2.5,2.1L285.8,154.5
			L285.8,154.5z M285.8,135.8c-1,0.2-2,0.5-3,0.9c-1.1,0.6-2.1,1.4-2.7,2.5c-0.7,1.3-1,2.8-1,4.3c-0.1,1.2,0.4,2.4,1.3,3.2
			c1.1,0.7,2.3,1.1,3.6,1c0.6,0,1.2-0.1,1.8-0.4c0.5-0.1,1.1-0.4,1.6-0.6c1.2-0.7,2.3-1.6,3.4-2.5l1.7-9.6c-1.9,0.2-3.7,0.5-5.4,0.9
			C286.6,135.6,286.1,135.7,285.8,135.8L285.8,135.8z"/>
		<path class="st0" d="M330.7,123.6c-2.3-1.8-7.5-1.4-8.6,2.2L317,156h-10.6l7.6-44.9h10.7l-0.2,3.6c2-2,4.3-3.8,10-3.6
			C334.8,111.1,331,117.8,330.7,123.6L330.7,123.6z"/>
		<path class="st3" d="M351.7,120.6c-0.5,0.3-1,0.6-1.5,1c-1.5,1.1-2.7,2.5-3.5,4.1c-0.9,1.9-1.6,4-1.9,6.1
			c-0.5,2.3-0.8,4.7-0.8,7.1c0,2.8,0.5,4.6,1.4,5.9c1,1.3,2.6,2,4.2,1.9c0.7,0,1.5-0.2,2.1-0.5c0.4-0.1,0.7-0.3,1-0.5
			c1.1-0.6,2.1-1.2,3-2l3.8-22.1c-0.7-0.4-1.5-0.8-2.3-1c-0.8-0.3-1.6-0.5-2.4-0.5C353.8,120.1,352.7,120.3,351.7,120.6L351.7,120.6
			z M351.7,153.6c-0.8,0.7-1.7,1.4-2.6,2c-0.8,0.5-1.7,0.9-2.6,1.2c-1,0.3-2,0.4-3.1,0.4c-3.1,0-6.1-1.5-7.8-4.2
			c-1.8-2.9-2.8-6.9-2.8-12.1c-0.1-4.1,0.4-8.1,1.5-12.1c0.9-3.5,2.3-6.8,4.1-9.9c1.6-2.6,3.7-4.9,6.2-6.7c2.1-1.5,4.5-2.4,7-2.5
			h0.3c1.6,0,3.2,0.2,4.8,0.7c1.5,0.6,2.9,1.4,4.1,2.4l2.4-15.7H374l-9.8,58.8h-10.7l0.8-4.6C353.3,152.2,352.5,152.9,351.7,153.6
			L351.7,153.6z"/>
		<path class="st4" d="M146.9,108.5l-1.8,10l-9.8-0.2c0,0-4.9,1.3-4.9,3.3s3.6,4.6,9,6.9s5.7,8.8,5.1,13.1s-1.3,13.4-17,13.9
			c-9,0.3-13.9-1.5-13.9-1.5l2.1-10.3c0,0,11.6,3.1,14.1,1.3c2.6-1.8,5.7-4.9,0.8-6.9s-12.9-5.4-12.9-13.6s3.3-12.9,8.5-15.2
			S140.4,107.2,146.9,108.5L146.9,108.5z"/>
		<polygon class="st4" points="69.6,154.4 58.2,154.4 64.8,115.3 50.8,154.2 42.9,154.2 41,113.8 34.2,154.4 23.4,154.4 33.5,94.7 
			46.6,94.7 51.2,129.1 66.3,94.7 79.7,94.7 69.6,154.4 		"/>
		<path class="st4" d="M157,155.2c-3.7,0-6.3-0.8-7.9-2.4s-2.4-4.2-2.4-7.4c0-0.8,0.1-1.6,0.2-2.4c0.1-0.8,0.3-1.8,0.4-2.9l6.9-38.2
			h10.7l-1.6,7.4h10l-1.7,9.4h-10l-2.7,16.3c-0.2,1.1-0.4,2.1-0.5,3.3c-0.2,0.9-0.2,1.9-0.3,2.9c0,1.7,0.3,2.8,1,3.4
			c0.9,0.7,2,1.1,3.1,1c0.7,0,1.4-0.2,2.1-0.4c0.8-0.2,1.5-0.6,2.2-0.9h0.9l-1.7,9.6c-1.2,0.4-2.5,0.8-3.8,0.9
			C160.3,155.2,158.7,155.3,157,155.2L157,155.2z"/>
		<path class="st4" d="M233.6,122c-2.3-1.8-7.5-1.4-8.6,2.3l-5.1,30.1h-10.7l7.7-44.9h10.6l-0.2,3.6c2-2,4.3-3.8,10-3.6
			C237.7,109.5,233.8,116.2,233.6,122L233.6,122z"/>
		<path class="st4" d="M253.7,155.6c-5.9,0-10.6-2-13.8-6s-4.9-9.7-4.9-17.1c-0.1-5.4,0.7-10.7,2.1-15.9c1.3-4.4,3.3-8.6,5.9-12.3
			c2.3-3.2,5.4-5.9,8.8-7.9c3.3-1.9,7-2.9,10.7-2.9c2.9,0,5.7,0.4,8.5,1.3c1.3,0.4,3.7,1.6,3.7,1.6l-2.5,14.2
			c-1.1-1.4-2.3-2.7-3.7-3.7c-1.9-1.3-4.2-1.9-6.5-1.9c-4.4,0-8,2.4-10.8,7.2c-2.9,4.8-4.3,10.9-4.3,18.3c0,4.8,0.8,8.2,2.4,10.4
			c1.7,2.1,4.2,3.2,6.9,3.1c2.7,0,5.4-0.8,7.7-2.2c1.1-0.7,2.3-1.5,3.3-2.4l-2.5,13.6c0,0-1.3,0.6-1.9,0.8c-1.5,0.6-2.8,0.9-4,1.3
			C257.1,155.5,255.4,155.6,253.7,155.6L253.7,155.6z"/>
		<path class="st4" d="M95.8,152.9c-0.4,0.4-0.9,0.6-1.2,0.8c-1,0.5-2,1-3.1,1.4c-1.3,0.3-2.7,0.5-4.1,0.5c-2.6,0.1-5.1-1.1-6.7-3.1
			c-1.8-2.3-2.8-5.3-2.7-8.2c-0.1-3.1,0.6-6.2,1.9-9.1c1.2-2.5,3.2-4.5,5.6-5.9c2.5-1.5,5.2-2.5,8.1-3l2.2-0.4
			c2.7-0.5,5.4-0.9,8.1-1c0-0.3,0-0.6,0.1-0.8c0.1-0.4,0.1-0.8,0.1-1.2c0.2-1.6-0.6-3.2-1.9-4.1c-1.8-0.8-3.8-1.2-5.8-1.1h-0.5
			c-1.8,0.2-3.6,0.6-5.3,1.2c-1.6,0.6-3.2,1.2-4.8,2h-1l1.6-10.6c1.9-0.6,3.8-1.1,5.8-1.4c1.2-0.3,2.5-0.5,3.7-0.6
			c1.3-0.2,2.7-0.3,4.1-0.2c5.2,0,9,1,11.4,2.8s3.6,4.7,3.6,8.6c0,0.7,0,1.3-0.1,2c-0.1,0.8-0.2,1.6-0.3,2.3l-5.2,30.6H98.8l0.8-4.8
			c-0.6,0.6-1.5,1.3-2.4,2.2C96.8,152.1,96.3,152.4,95.8,152.9L95.8,152.9z M95.8,134.2c-1,0.2-2,0.5-2.9,0.9
			c-1.2,0.5-2.1,1.4-2.7,2.5c-0.7,1.3-1.1,2.8-1,4.3c-0.1,1.2,0.3,2.4,1.2,3.2c1.1,0.7,2.4,1.1,3.7,1c0.6,0,1.1-0.1,1.7-0.4
			c0.6-0.2,1.1-0.3,1.7-0.6c1.2-0.7,2.3-1.6,3.3-2.5l1.6-9.6c-1.8,0.2-3.7,0.5-5.3,0.8C96.7,134,96.2,134.1,95.8,134.2L95.8,134.2z"
			/>
		<path class="st4" d="M188,117.2c-1.5,0.3-2.8,1-3.8,2.2c-1.7,1.9-2.8,4.2-3.4,6.7h14.4c0-0.5,0.1-0.8,0.1-1.3s0.1-0.8,0.1-1.2
			c0.1-1.8-0.4-3.5-1.5-4.9c-1.1-1.1-2.6-1.7-4.1-1.7C189.1,117,188.6,117.1,188,117.2z M188,145.4h1.6c2.3,0,4.6-0.5,6.6-1.6
			c1.9-1,3.7-2.2,5.4-3.6h1.2l-2,11.6c-2,1.2-4.2,2.1-6.5,2.8c-2,0.6-4.1,0.9-6.3,0.9h-1c-5.7,0-10.1-1.7-13.1-5.1s-4.6-8-4.6-14
			c0-3.8,0.5-7.6,1.5-11.2c0.9-3.3,2.4-6.3,4.3-9.1c1.8-2.5,4.1-4.5,6.8-6c1.9-1,4-1.6,6.1-2c1-0.1,1.9-0.1,2.9-0.1
			c4.9,0,8.6,1.3,11.2,4.1s3.7,6.7,3.7,12c0,1.8-0.1,3.6-0.4,5.4c-0.3,1.7-0.6,3.5-1.1,5.1h-24.7v0.9c-0.1,2.7,0.8,5.3,2.5,7.3
			C183.7,144.4,185.8,145.4,188,145.4L188,145.4z"/>
		<path class="st4" d="M287.9,152.9c-0.4,0.3-0.9,0.6-1.3,0.8c-1,0.6-2,1-3.1,1.4c-1.3,0.3-2.7,0.5-4,0.5c-2.6,0.1-5.1-1.1-6.8-3.1
			c-1.8-2.4-2.7-5.3-2.6-8.2c-0.1-3.1,0.5-6.2,1.9-9.1c1.2-2.4,3.1-4.5,5.5-5.9c2.5-1.5,5.3-2.5,8.2-3c0.7-0.1,1.4-0.2,2.2-0.4
			c2.6-0.5,5.3-0.9,8-1c0.1-0.3,0.1-0.6,0.2-0.8c0-0.3,0.1-0.7,0.1-1.2c0.1-1.6-0.7-3.2-2-4.1c-1.8-0.8-3.8-1.2-5.8-1.1h-0.5
			c-1.8,0.1-3.6,0.5-5.3,1.2c-1.6,0.6-3.2,1.2-4.8,2h-1l1.5-10.6c1.9-0.7,3.8-1.1,5.8-1.4c1.2-0.3,2.4-0.5,3.7-0.6
			c1.3-0.2,2.7-0.3,4.1-0.2c5.2,0,9,1,11.5,2.8s3.6,4.7,3.6,8.6c0,0.7,0,1.3-0.1,2c-0.1,0.8-0.2,1.6-0.3,2.3l-5.2,30.6h-10.5
			l0.8-4.8c-0.7,0.6-1.5,1.3-2.5,2.2l-1.3,1.1L287.9,152.9z M287.9,134.2c-1,0.2-2,0.5-3,0.9c-1.1,0.6-2.1,1.4-2.7,2.5
			c-0.7,1.3-1.1,2.8-1,4.3c-0.1,1.2,0.4,2.5,1.3,3.2c1.1,0.7,2.3,1.1,3.6,1c0.6,0,1.2-0.1,1.8-0.4c0.6-0.1,1.1-0.3,1.6-0.6
			c1.2-0.7,2.3-1.6,3.4-2.5l1.7-9.6c-1.9,0.2-3.7,0.5-5.4,0.8C288.7,134,288.3,134.1,287.9,134.2L287.9,134.2z"/>
		<path class="st4" d="M332.9,122c-2.3-1.8-7.5-1.4-8.6,2.3l-5.1,30.1h-10.7l7.7-44.9h10.7l-0.2,3.6c2-2,4.3-3.8,10-3.6
			C337,109.5,333.2,116.2,332.9,122z"/>
		<path class="st5" d="M353.8,119c-0.5,0.3-1,0.6-1.5,1c-1.5,1.1-2.7,2.5-3.5,4.1c-0.9,1.9-1.6,4-1.9,6.1c-0.5,2.3-0.8,4.7-0.8,7.1
			c0,2.8,0.5,4.7,1.4,5.9c1,1.3,2.6,2,4.2,1.9c0.7,0,1.5-0.2,2.1-0.5c0.4-0.1,0.7-0.3,1-0.5c1.1-0.6,2.1-1.2,3-2l3.8-22.1
			c-0.7-0.5-1.5-0.8-2.3-1c-0.8-0.3-1.6-0.5-2.4-0.5C355.9,118.5,354.8,118.7,353.8,119L353.8,119z M353.8,152
			c-0.8,0.7-1.7,1.4-2.6,2c-0.8,0.5-1.7,0.9-2.5,1.2c-1,0.3-2,0.4-3.1,0.4c-3.1,0-6.1-1.5-7.8-4.2c-1.8-2.9-2.8-6.9-2.8-12.1
			c-0.1-4.1,0.4-8.1,1.5-12.1c0.9-3.5,2.3-6.8,4.1-9.9c1.6-2.6,3.7-4.9,6.2-6.7c2.1-1.5,4.5-2.4,7.1-2.5h0.4c1.6,0,3.2,0.2,4.8,0.7
			c1.5,0.6,2.9,1.4,4.1,2.4l2.4-15.7h10.7l-9.8,58.8h-10.7l0.8-4.7C355.5,150.5,354.6,151.2,353.8,152L353.8,152z"/>
	</g>
</g>
</svg>
