<?xml version="1.0" encoding="utf-8"?>
<!-- Generator: Adobe Illustrator 25.3.1, SVG Export Plug-In . SVG Version: 6.00 Build 0)  -->
<svg version="1.1" id="Layer_1" xmlns="http://www.w3.org/2000/svg" xmlns:xlink="http://www.w3.org/1999/xlink" x="0px" y="0px"
	 viewBox="0 0 399.9 362.4" style="enable-background:new 0 0 399.9 362.4;" xml:space="preserve">
<style type="text/css">
	.st0{fill:#A50064;}
	.st1{fill:#FFFFFF;}
</style>
<g id="Layer_2_1_">
	<g id="Layer_1-2">
		<path class="st0" d="M50.2,0h299.5c27.7,0,50.2,22.4,50.2,50.1c0,0,0,0,0,0.1v262c0,27.7-22.4,50.2-50.1,50.2c0,0,0,0-0.1,0H50.2
			C22.5,362.4,0,340,0,312.3c0,0,0,0,0-0.1v-262C-0.1,22.5,22.3,0.1,50,0C50.1,0,50.1,0,50.2,0z"/>
		<path class="st1" d="M295.7,29.4c-39.4,0-71.3,30.7-71.3,68.5s32,68.5,71.3,68.5s71.4-30.7,71.4-68.5S335.2,29.4,295.7,29.4z
			 M295.7,127.1c-16.4,0.3-30-12.8-30.3-29.2c0.9-16.7,15.1-29.6,31.9-28.7c15.5,0.8,27.9,13.2,28.7,28.7
			C325.7,114.3,312.2,127.4,295.7,127.1C295.7,127.1,295.7,127.1,295.7,127.1z M204.1,80.9v85.8h-41.2V80.5
			c0-6.7-5.4-12.1-12.1-12.1s-12.1,5.4-12.1,12.1c0,0,0,0,0,0v86.2h-41V80.5c0-6.7-5.4-12.1-12.1-12.1c-6.7,0-12.1,5.4-12.1,12.1
			v86.2H32.6V80.9c0.6-29,24.5-52,53.5-51.4c11.5,0,22.7,3.6,32.1,10.3c9.3-6.7,20.5-10.3,32-10.3c29-0.7,53.2,22.2,53.9,51.2
			C204.1,80.8,204.1,80.8,204.1,80.9z M295.7,195.8c-39.4,0-71.3,30.6-71.3,68.5s32,68.6,71.3,68.6s71.3-30.6,71.3-68.4
			S335.2,195.8,295.7,195.8z M295.7,293.5c-16.1-0.6-28.6-14.2-28-30.3c0.6-16.1,14.2-28.6,30.3-28c15.6,0.6,28,13.4,28,29.1
			c-0.2,16.4-13.6,29.5-30,29.3C295.9,293.6,295.9,293.6,295.7,293.5L295.7,293.5L295.7,293.5L295.7,293.5z M204.1,247.4V333h-41.2
			v-86.1c0-6.7-5.4-12.1-12.1-12.1s-12.1,5.4-12.1,12.1c0,0,0,0,0,0V333h-41v-86.1c0-6.7-5.4-12.1-12.1-12.1
			c-6.7,0-12.1,5.4-12.1,12.1V333H32.6v-85.6c0.5-29,24.5-52.1,53.5-51.6h0.1c11.5,0,22.7,3.6,32.1,10.3c9.3-6.7,20.5-10.3,32-10.3
			c29-0.6,53,22.4,53.7,51.4C204.1,247.3,204.1,247.3,204.1,247.4z"/>
	</g>
</g>
</svg>
